# xmcd
#
# Track frame offsets:
#	150
#	72067
#	138147
#	191809
#	250218
#	281134
# Disc length: 4523 seconds
# Revision: 7
# Processed by: cddbd v1.5.2PL0 Copyright (c) Steve Scherf et al.
#
# Submitted via: libkcddb 0.31
#
DISCID=5711a906
DTITLE=Chris Potter - Follow the Red Line: Live at the Village Vanguard
DYEAR=2007
DGENRE=Jazz
TTITLE0=Train
TTITLE1=Arjuna
TTITLE2=Pop Tune #1
TTITLE3=Viva Las Vilnius
TTITLE4=Zea
TTITLE5=Togo
EXTD=YEAR: 2007
EXTT0=
EXTT1=
EXTT2=
EXTT3=
EXTT4=
EXTT5=
PLAYORDER=
